<?xml version="1.0" encoding="UTF-8"?>
<svg id="Layer_1" data-name="Layer 1" xmlns="http://www.w3.org/2000/svg" xmlns:xlink="http://www.w3.org/1999/xlink" viewBox="0 0 1780.25 1080">
  <defs>
    <style>
      .cls-1 {
        fill: #7a32a0;
      }

      .cls-2 {
        fill: #2f8c93;
      }

      .cls-3, .cls-4 {
        fill: #5d1c7f;
      }

      .cls-4 {
        filter: url(#drop-shadow-1);
      }
    </style>
    <filter id="drop-shadow-1" x="286.35" y="-4.52" width="574.8" height="912" filterUnits="userSpaceOnUse">
      <feOffset dx="-33" dy="58"/>
      <feGaussianBlur result="blur" stdDeviation="23"/>
      <feFlood flood-color="#000" flood-opacity=".8"/>
      <feComposite in2="blur" operator="in"/>
      <feComposite in="SourceGraphic"/>
    </filter>
  </defs>
  <path class="cls-2" d="M1780.97,1078.97h-435.47l-171.21-304.41-209.47-372.43c-5.14-9.13-5.14-20.28,0-29.41L1174.28.28l217.74,387.15,388.95,691.54Z"/>
  <polygon class="cls-1" points="606.22 775.31 597.53 790.76 435.01 1079.72 -.47 1079.72 379.8 403.62 388.48 388.17 605.96 774.86 606.22 775.31"/>
  <polygon class="cls-4" points="825.09 395.65 605.96 780.33 388.48 393.65 597.53 21.95 606.22 6.5 823.96 393.65 825.09 395.65"/>
  <polygon class="cls-3" points="1212.9 1079.72 777.43 1079.72 672.51 893.18 606.22 775.31 388.48 388.17 597.53 16.48 606.22 1.03 823.96 388.17 890.25 506.04 1107.99 893.18 1212.9 1079.72"/>
</svg>